<svg xmlns="http://www.w3.org/2000/svg" version="1.1" xmlns:xlink="http://www.w3.org/1999/xlink" width="1000" height="1000"><style>
    #light-icon {
      display: inline;
    }
    #dark-icon {
      display: none;
    }

    @media (prefers-color-scheme: dark) {
      #light-icon {
        display: none;
      }
      #dark-icon {
        display: inline;
      }
    }
  </style><g id="light-icon"><svg xmlns="http://www.w3.org/2000/svg" version="1.1" xmlns:xlink="http://www.w3.org/1999/xlink" width="1000" height="1000"><g><g transform="matrix(62.5,0,0,62.5,156.25,0)"><svg xmlns="http://www.w3.org/2000/svg" version="1.1" xmlns:xlink="http://www.w3.org/1999/xlink" width="11" height="16"><svg version="1.1" width="11" height="16" xmlns="http://www.w3.org/2000/svg" shape-rendering="crispEdges">
<rect x="0" y="0" width="7" height="1" fill="#000000"></rect>
<rect x="0" y="1" width="1" height="15" fill="#000000"></rect>
<rect x="6" y="1" width="2" height="1" fill="#000000"></rect>
<rect x="6" y="2" width="1" height="3" fill="#000000"></rect>
<rect x="8" y="2" width="1" height="1" fill="#000000"></rect>
<rect x="9" y="3" width="1" height="2" fill="#000000"></rect>
<rect x="7" y="4" width="2" height="1" fill="#000000"></rect>
<rect x="10" y="4" width="1" height="12" fill="#000000"></rect>
<rect x="2" y="6" width="3" height="1" fill="#000000"></rect>
<rect x="6" y="6" width="3" height="1" fill="#000000"></rect>
<rect x="1" y="7" width="1" height="3" fill="#000000"></rect>
<rect x="2" y="7" width="3" height="3" fill="#FF0000"></rect>
<rect x="5" y="7" width="1" height="1" fill="#000000"></rect>
<rect x="6" y="7" width="3" height="3" fill="#FF0000"></rect>
<rect x="9" y="7" width="1" height="3" fill="#000000"></rect>
<rect x="5" y="8" width="1" height="5" fill="#FF0000"></rect>
<rect x="2" y="10" width="1" height="1" fill="#000000"></rect>
<rect x="3" y="10" width="2" height="1" fill="#FF0000"></rect>
<rect x="6" y="10" width="2" height="1" fill="#FF0000"></rect>
<rect x="8" y="10" width="1" height="1" fill="#000000"></rect>
<rect x="3" y="11" width="1" height="1" fill="#000000"></rect>
<rect x="4" y="11" width="1" height="1" fill="#FF0000"></rect>
<rect x="6" y="11" width="1" height="1" fill="#FF0000"></rect>
<rect x="7" y="11" width="1" height="1" fill="#000000"></rect>
<rect x="4" y="12" width="1" height="1" fill="#000000"></rect>
<rect x="6" y="12" width="1" height="1" fill="#000000"></rect>
<rect x="5" y="13" width="1" height="1" fill="#000000"></rect>
<rect x="1" y="15" width="9" height="1" fill="#000000"></rect>
</svg></svg></g></g></svg></g><g id="dark-icon"><svg xmlns="http://www.w3.org/2000/svg" version="1.1" xmlns:xlink="http://www.w3.org/1999/xlink" width="1000" height="1000"><g><g transform="matrix(62.5,0,0,62.5,156.25,0)"><svg xmlns="http://www.w3.org/2000/svg" version="1.1" xmlns:xlink="http://www.w3.org/1999/xlink" width="11" height="16"><svg version="1.1" width="11" height="16" xmlns="http://www.w3.org/2000/svg" shape-rendering="crispEdges">
<rect x="0" y="0" width="7" height="1" fill="#FFFFFF"></rect>
<rect x="0" y="1" width="1" height="15" fill="#FFFFFF"></rect>
<rect x="6" y="1" width="2" height="1" fill="#FFFFFF"></rect>
<rect x="6" y="2" width="1" height="3" fill="#FFFFFF"></rect>
<rect x="8" y="2" width="1" height="1" fill="#FFFFFF"></rect>
<rect x="9" y="3" width="1" height="2" fill="#FFFFFF"></rect>
<rect x="7" y="4" width="2" height="1" fill="#FFFFFF"></rect>
<rect x="10" y="4" width="1" height="12" fill="#FFFFFF"></rect>
<rect x="2" y="6" width="3" height="1" fill="#FFFFFF"></rect>
<rect x="6" y="6" width="3" height="1" fill="#FFFFFF"></rect>
<rect x="1" y="7" width="1" height="3" fill="#FFFFFF"></rect>
<rect x="2" y="7" width="3" height="3" fill="#FF0000"></rect>
<rect x="5" y="7" width="1" height="1" fill="#FFFFFF"></rect>
<rect x="6" y="7" width="3" height="3" fill="#FF0000"></rect>
<rect x="9" y="7" width="1" height="3" fill="#FFFFFF"></rect>
<rect x="5" y="8" width="1" height="5" fill="#FF0000"></rect>
<rect x="2" y="10" width="1" height="1" fill="#FFFFFF"></rect>
<rect x="3" y="10" width="2" height="1" fill="#FF0000"></rect>
<rect x="6" y="10" width="2" height="1" fill="#FF0000"></rect>
<rect x="8" y="10" width="1" height="1" fill="#FFFFFF"></rect>
<rect x="3" y="11" width="1" height="1" fill="#FFFFFF"></rect>
<rect x="4" y="11" width="1" height="1" fill="#FF0000"></rect>
<rect x="6" y="11" width="1" height="1" fill="#FF0000"></rect>
<rect x="7" y="11" width="1" height="1" fill="#FFFFFF"></rect>
<rect x="4" y="12" width="1" height="1" fill="#FFFFFF"></rect>
<rect x="6" y="12" width="1" height="1" fill="#FFFFFF"></rect>
<rect x="5" y="13" width="1" height="1" fill="#FFFFFF"></rect>
<rect x="1" y="15" width="9" height="1" fill="#FFFFFF"></rect>
</svg></svg></g></g></svg></g></svg>