<?xml version="1.0"?><svg xmlns="http://www.w3.org/2000/svg" id="Layer_1" data-name="Layer 1" viewBox="0 0 64 64"><path d="M61,13.53H56.16V6.94a1,1,0,0,0-.92-1C42.1,4.94,34.38,11.7,32,14.19,29.62,11.7,21.91,4.94,8.76,5.94a1,1,0,0,0-.92,1v6.59H3a1,1,0,0,0-1,1V57.16a1,1,0,0,0,1,1A1.13,1.13,0,0,0,3.5,58a33.86,33.86,0,0,1,28-1h0l.06,0,.06,0h.09a.8.8,0,0,0,.15,0h.17l.14,0,.11,0,.06,0,0,0a34,34,0,0,1,28.07,1,1.05,1.05,0,0,0,.49.13,1,1,0,0,0,1-1V14.53A1,1,0,0,0,61,13.53ZM33,16.06c1.29-1.46,8.43-8.8,21.16-8.18v6.65h0v31.8A28.87,28.87,0,0,0,33,53.67Zm-2,0v37.6A28.62,28.62,0,0,0,11.37,46.3l-1.53,0V14.53h0V7.88A26.75,26.75,0,0,1,31,16.07ZM4,55.54v-40H7.84V47.39a1,1,0,0,0,.32.74,1,1,0,0,0,.75.26,27.61,27.61,0,0,1,18.85,5.23A35.87,35.87,0,0,0,4,55.54Zm56,0a35.91,35.91,0,0,0-23.79-1.91,27.53,27.53,0,0,1,18.88-5.24,1,1,0,0,0,1.07-1V15.53H60Z"/><path d="M12.08,19.43c.11,0,10.61-1.58,15.35,6.12a1,1,0,0,0,1.37.33,1,1,0,0,0,.33-1.38c-5.43-8.82-16.88-7.13-17.36-7a1,1,0,0,0,.31,2Z"/><path d="M12.08,27.4c.11,0,10.61-1.58,15.35,6.12a1,1,0,0,0,1.37.33,1,1,0,0,0,.33-1.38c-5.43-8.82-16.88-7.13-17.36-7a1,1,0,0,0,.31,2Z"/><path d="M11.77,33.39a1,1,0,0,0,.31,2c.1,0,10.62-1.56,15.35,6.12a1,1,0,0,0,1.37.33,1,1,0,0,0,.33-1.38C23.7,31.62,12.25,33.31,11.77,33.39Z"/><path d="M34.88,25.88a1,1,0,0,0,1.38-.33C41,17.87,51.5,19.41,51.6,19.43a1,1,0,1,0,.31-2c-.48-.08-11.93-1.77-17.36,7.05A1,1,0,0,0,34.88,25.88Z"/><path d="M34.88,33.85a1,1,0,0,0,1.38-.33C41,25.84,51.5,27.38,51.6,27.4a1,1,0,1,0,.31-2c-.48-.08-11.93-1.77-17.36,7A1,1,0,0,0,34.88,33.85Z"/><path d="M52.75,34.53a1,1,0,0,0-.84-1.14c-.48-.08-11.93-1.77-17.36,7a1,1,0,1,0,1.71,1.05C41,33.81,51.5,35.35,51.6,35.37A1,1,0,0,0,52.75,34.53Z"/></svg>