<?xml version="1.0" encoding="UTF-8" ?>
<svg version="1.1" width="8" height="8" xmlns="http://www.w3.org/2000/svg" shape-rendering="crispEdges">
<rect x="0" y="0" width="8" height="2" fill="#837478" />
<rect x="0" y="2" width="6" height="1" fill="#837478" />
<rect x="6" y="2" width="2" height="1" fill="#FDE4E8" />
<rect x="0" y="3" width="2" height="1" fill="#837478" />
<rect x="2" y="3" width="4" height="1" fill="#FFE7E9" />
<rect x="6" y="3" width="2" height="1" fill="#837478" />
<rect x="0" y="4" width="1" height="1" fill="#837478" />
<rect x="1" y="4" width="2" height="2" fill="#4D4641" />
<rect x="3" y="4" width="2" height="2" fill="#FFE7E9" />
<rect x="5" y="4" width="2" height="2" fill="#4D4641" />
<rect x="7" y="4" width="1" height="1" fill="#837478" />
<rect x="0" y="5" width="1" height="2" fill="#4D4641" />
<rect x="7" y="5" width="1" height="2" fill="#4D4641" />
<rect x="1" y="6" width="1" height="2" fill="#FFFAF5" />
<rect x="2" y="6" width="1" height="1" fill="#FADDDE" />
<rect x="3" y="6" width="2" height="2" fill="#FFFAF5" />
<rect x="5" y="6" width="1" height="1" fill="#FADDDE" />
<rect x="6" y="6" width="1" height="1" fill="#FFF9F9" />
<rect x="0" y="7" width="1" height="1" fill="#6C5B5E" />
<rect x="2" y="7" width="1" height="1" fill="#FFFAF5" />
<rect x="5" y="7" width="2" height="1" fill="#FFFAF5" />
<rect x="7" y="7" width="1" height="1" fill="#6C5B5E" />
</svg>